<svg viewBox="0 0 431 274" xmlns="http://www.w3.org/2000/svg"><g fill="none" fill-rule="evenodd"><path d="M162.634 87.274C167.837 55.62 185.46 26.53 215.5 0c30.041 26.53 47.663 55.62 52.866 87.274a248.853 248.853 0 0 1 16.597-18.311C324.536 29.39 373.208 6.409 430.98.02c-6.389 57.772-29.37 106.444-68.943 146.017-39.573 39.573-88.245 62.554-146.017 68.943l.054-.489c-.19.17-.382.34-.574.509l-.574-.509.054.49c-57.772-6.39-106.444-29.37-146.017-68.944C29.39 106.464 6.409 57.792.02.02c57.772 6.389 106.444 29.37 146.017 68.943a248.853 248.853 0 0 1 16.597 18.31zm0 0A124.506 124.506 0 0 0 161 107.5c0 39.371 17.975 75.035 53.926 106.991-5.498-48.95-22.928-91.356-52.292-127.217zm53.44 127.217C252.024 182.535 270 146.871 270 107.5c0-6.854-.545-13.596-1.634-20.226-29.364 35.861-46.794 78.267-52.292 127.217z" fill="#4DAA22"/><path d="M90.85 254.8c2.033.567 3.608 1.6 4.725 3.1 1.117 1.5 1.675 3.333 1.675 5.5 0 3-1.075 5.35-3.225 7.05-2.15 1.7-5.108 2.55-8.875 2.55h-12.9c-.967 0-1.725-.267-2.275-.8-.55-.533-.825-1.283-.825-2.25V240.8c0-.967.275-1.717.825-2.25.55-.533 1.308-.8 2.275-.8h12.4c3.667 0 6.542.808 8.625 2.425 2.083 1.617 3.125 3.875 3.125 6.775 0 1.867-.492 3.483-1.475 4.85-.983 1.367-2.342 2.367-4.075 3zm-15.4-2.2h8.15c4.433 0 6.65-1.65 6.65-4.95 0-1.667-.55-2.9-1.65-3.7-1.1-.8-2.767-1.2-5-1.2h-8.15v9.85zm9 15.4c2.333 0 4.033-.417 5.1-1.25 1.067-.833 1.6-2.133 1.6-3.9s-.542-3.083-1.625-3.95-2.775-1.3-5.075-1.3h-9V268h9zm21.4 5.3c-.9 0-1.642-.258-2.225-.775-.583-.517-.875-1.258-.875-2.225V251c0-.967.292-1.7.875-2.2.583-.5 1.325-.75 2.225-.75.9 0 1.65.25 2.25.75.6.5.9 1.233.9 2.2v19.3c0 .967-.3 1.708-.9 2.225-.6.517-1.35.775-2.25.775zm0-29.7c-1.133 0-2.033-.308-2.7-.925-.667-.617-1-1.425-1-2.425 0-1 .333-1.8 1-2.4.667-.6 1.567-.9 2.7-.9 1.1 0 1.992.3 2.675.9.683.6 1.025 1.4 1.025 2.4s-.333 1.808-1 2.425c-.667.617-1.567.925-2.7.925zm22.3 25.05c1.667.1 2.5.85 2.5 2.25 0 .8-.325 1.408-.975 1.825-.65.417-1.575.592-2.775.525l-1.35-.1c-5.6-.4-8.4-3.4-8.4-9v-10.9h-2.5c-.9 0-1.592-.2-2.075-.6-.483-.4-.725-.983-.725-1.75s.242-1.35.725-1.75c.483-.4 1.175-.6 2.075-.6h2.5v-4.6c0-.9.283-1.617.85-2.15.567-.533 1.333-.8 2.3-.8.933 0 1.683.267 2.25.8s.85 1.25.85 2.15v4.6h4.25c.9 0 1.592.2 2.075.6.483.4.725.983.725 1.75s-.242 1.35-.725 1.75c-.483.4-1.175.6-2.075.6h-4.25v11.35c0 2.467 1.133 3.783 3.4 3.95l1.35.1zm25.1-2.35c.567 0 1.025.217 1.375.65.35.433.525 1.017.525 1.75 0 1.033-.617 1.9-1.85 2.6-1.133.633-2.417 1.142-3.85 1.525-1.433.383-2.8.575-4.1.575-3.933 0-7.05-1.133-9.35-3.4s-3.45-5.367-3.45-9.3c0-2.5.5-4.717 1.5-6.65 1-1.933 2.408-3.433 4.225-4.5 1.817-1.067 3.875-1.6 6.175-1.6 2.2 0 4.117.483 5.75 1.45s2.9 2.333 3.8 4.1c.9 1.767 1.35 3.85 1.35 6.25 0 1.433-.633 2.15-1.9 2.15H138.7c.2 2.3.85 3.992 1.95 5.075 1.1 1.083 2.7 1.625 4.8 1.625 1.067 0 2.008-.133 2.825-.4a27.885 27.885 0 0 0 2.775-1.1c1-.533 1.733-.8 2.2-.8zm-8.65-13.95c-1.7 0-3.058.533-4.075 1.6-1.017 1.067-1.625 2.6-1.825 4.6H150c-.067-2.033-.567-3.575-1.5-4.625-.933-1.05-2.233-1.575-3.9-1.575zm24.7 21.05c-3.633 0-6.567-.717-8.8-2.15-1.067-.633-1.6-1.533-1.6-2.7 0-.667.183-1.208.55-1.625.367-.417.817-.625 1.35-.625.567 0 1.35.267 2.35.8 1.067.5 2.042.883 2.925 1.15.883.267 2.008.4 3.375.4 1.4 0 2.492-.233 3.275-.7.783-.467 1.175-1.117 1.175-1.95 0-.567-.158-1.017-.475-1.35-.317-.333-.883-.642-1.7-.925-.817-.283-2.058-.608-3.725-.975-2.967-.6-5.092-1.45-6.375-2.55-1.283-1.1-1.925-2.617-1.925-4.55 0-1.467.433-2.792 1.3-3.975.867-1.183 2.058-2.1 3.575-2.75 1.517-.65 3.242-.975 5.175-.975 1.4 0 2.75.175 4.05.525 1.3.35 2.467.858 3.5 1.525 1.067.667 1.6 1.55 1.6 2.65 0 .667-.183 1.225-.55 1.675-.367.45-.817.675-1.35.675-.367 0-.725-.075-1.075-.225-.35-.15-.792-.375-1.325-.675-.967-.5-1.8-.875-2.5-1.125s-1.567-.375-2.6-.375c-1.233 0-2.208.25-2.925.75-.717.5-1.075 1.183-1.075 2.05 0 .833.367 1.467 1.1 1.9.733.433 2.15.867 4.25 1.3 2.233.467 3.983 1 5.25 1.6 1.267.6 2.175 1.35 2.725 2.25.55.9.825 2.05.825 3.45 0 2.267-.942 4.083-2.825 5.45-1.883 1.367-4.392 2.05-7.525 2.05zm57.7-4.45c.4.6.6 1.183.6 1.75 0 .767-.308 1.4-.925 1.9s-1.342.75-2.175.75a3.275 3.275 0 0 1-1.525-.375 3.28 3.28 0 0 1-1.225-1.125l-6.65-10.1c-.667-1.067-1.375-1.817-2.125-2.25-.75-.433-1.725-.65-2.925-.65h-4.9v11.2c0 1-.283 1.792-.85 2.375s-1.333.875-2.3.875c-.967 0-1.742-.292-2.325-.875-.583-.583-.875-1.375-.875-2.375V240.8c0-.967.275-1.717.825-2.25.55-.533 1.308-.8 2.275-.8h12.5c4 0 7.042.892 9.125 2.675s3.125 4.358 3.125 7.725c0 2.733-.775 4.975-2.325 6.725-1.55 1.75-3.742 2.875-6.575 3.375.967.233 1.817.65 2.55 1.25.733.6 1.45 1.433 2.15 2.5l4.55 6.95zm-13.5-15.05c2.433 0 4.217-.458 5.35-1.375s1.7-2.325 1.7-4.225c0-1.933-.567-3.342-1.7-4.225-1.133-.883-2.917-1.325-5.35-1.325h-8.4v11.15h8.4zm38.85 12.4c.567 0 1.025.217 1.375.65.35.433.525 1.017.525 1.75 0 1.033-.617 1.9-1.85 2.6-1.133.633-2.417 1.142-3.85 1.525-1.433.383-2.8.575-4.1.575-3.933 0-7.05-1.133-9.35-3.4s-3.45-5.367-3.45-9.3c0-2.5.5-4.717 1.5-6.65 1-1.933 2.408-3.433 4.225-4.5 1.817-1.067 3.875-1.6 6.175-1.6 2.2 0 4.117.483 5.75 1.45s2.9 2.333 3.8 4.1c.9 1.767 1.35 3.85 1.35 6.25 0 1.433-.633 2.15-1.9 2.15H237.8c.2 2.3.85 3.992 1.95 5.075 1.1 1.083 2.7 1.625 4.8 1.625 1.067 0 2.008-.133 2.825-.4a27.885 27.885 0 0 0 2.775-1.1c1-.533 1.733-.8 2.2-.8zm-8.65-13.95c-1.7 0-3.058.533-4.075 1.6-1.017 1.067-1.625 2.6-1.825 4.6h11.3c-.067-2.033-.567-3.575-1.5-4.625-.933-1.05-2.233-1.575-3.9-1.575zm32.9-2.5c.267-.6.625-1.05 1.075-1.35.45-.3.942-.45 1.475-.45.767 0 1.458.258 2.075.775.617.517.925 1.158.925 1.925 0 .4-.1.8-.3 1.2l-9.25 19.35c-.3.633-.725 1.117-1.275 1.45-.55.333-1.158.5-1.825.5a3.628 3.628 0 0 1-1.825-.5 3.202 3.202 0 0 1-1.325-1.45l-9.3-19.35a2.538 2.538 0 0 1-.25-1.15c0-.767.325-1.417.975-1.95a3.41 3.41 0 0 1 2.225-.8c1.2 0 2.083.583 2.65 1.75l7 15.45 6.95-15.4zm12.35 23.45c-.9 0-1.642-.258-2.225-.775-.583-.517-.875-1.258-.875-2.225V251c0-.967.292-1.7.875-2.2.583-.5 1.325-.75 2.225-.75.9 0 1.65.25 2.25.75.6.5.9 1.233.9 2.2v19.3c0 .967-.3 1.708-.9 2.225-.6.517-1.35.775-2.25.775zm0-29.7c-1.133 0-2.033-.308-2.7-.925-.667-.617-1-1.425-1-2.425 0-1 .333-1.8 1-2.4.667-.6 1.567-.9 2.7-.9 1.1 0 1.992.3 2.675.9.683.6 1.025 1.4 1.025 2.4s-.333 1.808-1 2.425c-.667.617-1.567.925-2.7.925zm28.95 22.7c.567 0 1.025.217 1.375.65.35.433.525 1.017.525 1.75 0 1.033-.617 1.9-1.85 2.6-1.133.633-2.417 1.142-3.85 1.525-1.433.383-2.8.575-4.1.575-3.933 0-7.05-1.133-9.35-3.4s-3.45-5.367-3.45-9.3c0-2.5.5-4.717 1.5-6.65 1-1.933 2.408-3.433 4.225-4.5 1.817-1.067 3.875-1.6 6.175-1.6 2.2 0 4.117.483 5.75 1.45s2.9 2.333 3.8 4.1c.9 1.767 1.35 3.85 1.35 6.25 0 1.433-.633 2.15-1.9 2.15h-14.75c.2 2.3.85 3.992 1.95 5.075 1.1 1.083 2.7 1.625 4.8 1.625 1.067 0 2.008-.133 2.825-.4a27.885 27.885 0 0 0 2.775-1.1c1-.533 1.733-.8 2.2-.8zm-8.65-13.95c-1.7 0-3.058.533-4.075 1.6-1.017 1.067-1.625 2.6-1.825 4.6h11.3c-.067-2.033-.567-3.575-1.5-4.625-.933-1.05-2.233-1.575-3.9-1.575zm48.9-2.45c.233-.6.575-1.05 1.025-1.35.45-.3.942-.45 1.475-.45.767 0 1.458.258 2.075.775.617.517.925 1.158.925 1.925 0 .433-.083.817-.25 1.15l-8.25 19.35c-.267.633-.675 1.117-1.225 1.45-.55.333-1.158.5-1.825.5a3.365 3.365 0 0 1-1.775-.5c-.55-.333-.958-.817-1.225-1.45l-5.95-14.3-5.75 14.3c-.267.633-.675 1.117-1.225 1.45-.55.333-1.158.5-1.825.5a3.495 3.495 0 0 1-1.8-.5 2.966 2.966 0 0 1-1.25-1.45l-8.2-19.35c-.167-.433-.25-.8-.25-1.1 0-.767.333-1.425 1-1.975s1.4-.825 2.2-.825c.567 0 1.083.15 1.55.45.467.3.817.75 1.05 1.35l5.9 15.25 6.05-15.1c.267-.633.65-1.108 1.15-1.425.5-.317 1.05-.475 1.65-.475.6 0 1.15.158 1.65.475.5.317.883.792 1.15 1.425l6.1 15.15 5.85-15.25z" fill="#222"/></g></svg>
